<svg xmlns="http://www.w3.org/2000/svg" viewBox="0 0 256 256"><circle cx="98.47" cy="150.4" r="10.34"/><path d="M125.64 123.49a38.289 38.289 0 0 0-12.21-8.23c-4.74-2-9.77-3.02-14.95-3.02-3.63 0-6.58 2.95-6.58 6.58s2.95 6.58 6.58 6.58c6.75 0 13.09 2.63 17.86 7.4 4.77 4.77 7.4 11.11 7.4 17.86 0 3.63 2.95 6.58 6.58 6.58s6.58-2.95 6.58-6.58c0-5.18-1.02-10.21-3.02-14.95-1.94-4.58-4.7-8.68-8.23-12.21Z"/><path d="M216.45 35.82 127.99 0 39.55 35.82 6 89.03l3.39 87.21 51.65 40.12L127.99 256l66.97-39.64 51.65-40.12L250 89.03l-33.55-53.22ZM185.42 154.9c0 13-10.53 23.53-23.53 23.53H94.11c-13 0-23.53-10.53-23.53-23.53V87.11c0-13 10.53-23.53 23.53-23.53h67.79c13 0 23.53 10.53 23.53 23.53v67.79Z"/><path d="M147.54 101.58a69.19 69.19 0 0 0-22.06-14.87c-8.56-3.62-17.65-5.46-27.01-5.46-3.63 0-6.58 2.95-6.58 6.58s2.95 6.58 6.58 6.58c7.59 0 14.96 1.49 21.89 4.42 6.7 2.83 12.71 6.89 17.88 12.05s9.22 11.18 12.05 17.88c2.93 6.93 4.42 14.29 4.42 21.89 0 3.63 2.95 6.58 6.58 6.58s6.58-2.95 6.58-6.58c0-9.36-1.84-18.45-5.46-27.01-3.5-8.26-8.5-15.68-14.87-22.06Z"/></svg>