<svg xmlns="http://www.w3.org/2000/svg" viewBox="0 0 256 256"><path fill="#041220" d="M127.99 0 39.55 35.82 6 89.03l3.39 87.22 51.65 40.11L127.99 256l66.97-39.64 51.65-40.11L250 89.03l-33.55-53.21L127.99 0z"/><rect x="70.58" y="63.58" width="114.85" height="114.85" rx="19.61" ry="19.61" fill="#ff7f00"/><path d="M130.31 157.23c-3.63 0-6.58-2.95-6.58-6.58 0-6.75-2.63-13.09-7.4-17.86-4.77-4.77-11.11-7.4-17.86-7.4-3.63 0-6.58-2.95-6.58-6.58s2.95-6.58 6.58-6.58c5.18 0 10.21 1.02 14.95 3.02a38.4 38.4 0 0 1 12.21 8.23c3.53 3.53 6.29 7.63 8.23 12.21 2 4.74 3.02 9.77 3.02 14.95 0 3.63-2.95 6.58-6.58 6.58Z" fill="#fff"/><path d="M161.29 157.23c-3.63 0-6.58-2.95-6.58-6.58 0-7.59-1.49-14.96-4.42-21.89-2.83-6.7-6.89-12.71-12.05-17.88s-11.18-9.22-17.88-12.05c-6.93-2.93-14.29-4.42-21.89-4.42-3.63 0-6.58-2.95-6.58-6.58s2.95-6.58 6.58-6.58c9.36 0 18.45 1.84 27.01 5.46 8.26 3.5 15.68 8.5 22.06 14.87a69.19 69.19 0 0 1 14.87 22.06c3.62 8.56 5.46 17.65 5.46 27.01 0 3.63-2.95 6.58-6.58 6.58Z" fill="#fff"/><circle cx="98.47" cy="150.4" r="10.34" fill="#fff"/></svg>